<svg height="16" viewBox="0 0 16 16" width="16" xmlns="http://www.w3.org/2000/svg"><path d="m2.28283873 9.03412734c-.16086504.00062219-.30002724.13190437-.28111056.32369456.31689094 3.184526 2.92783179 5.641867 5.71034246 5.641867-.14605431-3.1294622-2.47999054-5.66099936-5.4292319-5.96556156zm4.67256497-3.25421134c.25442192-.36973665.53655897-.72065203.84773092-1.0466798.1093941-.11448304.28477659-.11448304.39431732 0 .31117195.32602777.59316236.67694315.84758428 1.04652425.30252014-.45015476.63979416-.8685778 1.01490148-1.24562518-.38346585-1.26615747-1.02150032-2.44303061-1.86468537-3.4449127-.1093941-.11417194-.27216547-.12366035-.3899181 0-.84333169 1.00203764-1.48136616 2.17906633-1.86453877 3.44506824.37466744.37704739.71223475.79562598 1.01460824 1.24562519zm-1.47374083 3.8854235c.15089346-1.19740542.5409582-2.34208021 1.13969291-3.36216138-.00014664-.00031109-.00087985-.00062219-.00117313-.00124438-.72792532-1.14903012-1.72215048-2.06660541-2.89322454-2.68770698-.16878365-.07528504-.31073202.03919799-.35839031.14808132-.49300663 1.57414171-.507964 3.27069938-.03358076 4.85744045.78086268.21138919 1.50526862.57070415 2.14667583 1.04559097zm4.5152193.4288447c-.14737408-1.7640653-.84743764-3.42609141-1.99666221-4.7230473-1.14907793 1.29695589-1.84943476 2.958982-1.99651557 4.7230473.92984982.846179 1.63181971 1.9597443 1.99622229 3.2259017.36425594-1.2661574 1.06695903-2.3797227 1.99695549-3.2259017zm-.61779802-3.79100608c.59888135 1.01992562.98865285 2.16475596 1.13954625 3.36216138.6412606-.47488682 1.3656665-.83420178 2.1466758-1.04559097.4743833-1.58611887.4598658-3.28220991-.0329942-4.85619607-.0715607-.1656582-.2448902-.19987867-.3582436-.1496368-1.1713674.62110157-2.1657392 1.53883241-2.89381113 2.68801808-.00029328.00062219-.00087984.00077774-.00117312.00124438zm4.33807715 2.73126032c-2.9492414.3045622-5.28317762 2.83609936-5.42908529 5.96556156 2.78265729 0 5.39330489-2.457341 5.71019579-5.64186701.0189167-.19179019-.1202455-.32307236-.2811105-.32369455z" transform="matrix(1 0 0 -1 0 16)"/></svg>