<svg height="16" viewBox="0 0 16 16" width="16" xmlns="http://www.w3.org/2000/svg"><g transform="translate(1 -.43406)"><path d="m13.7283784 12.6709677c0-.1741935-.1513514-.3290322-.3216216-.3290322h-12.81351356c-.17027027 0-.32162162.1548387-.32162162.3290322 0 .1741936.15135135.3290323.32162162.3290323h12.81351356c.1891891 0 .3216216-.1354839.3216216-.3290323z"/><path d="m5.8 5.18064516c.31764706 0 .6-.28885877.6-.61382488 0-.32496612-.28235294-.61382489-.6-.61382489s-.6.28885877-.6.61382489c0 .32496611.28235294.61382488.6.61382488z"/><path d="m7.95135135 4.41607649c.31764706 0 .6-.28885877.6-.61382488 0-.32496612-.28235294-.61382489-.6-.61382489s-.6.28885877-.6.61382489c0 .32496611.28235294.61382488.6.61382488z"/><path d="m6.4 3.46912442c.31764706 0 .6-.28885877.6-.61382488 0-.32496612-.28235294-.61382489-.6-.61382489s-.6.28885877-.6.61382489c0 .32496611.28235294.61382488.6.61382488z"/><path d="m7.6 1.75760369c.31764706 0 .6-.28885877.6-.61382489 0-.32496611-.28235294-.61382488-.6-.61382488s-.6.28885877-.6.61382488c0 .32496612.28235294.61382489.6.61382489z"/><path d="m5.88378378 6.1483871-4.69189189 5.7096774h11.61621621l-4.69189188-5.7096774s-.01891892-.01935484-.01891892-.01935484c-.60540541-.61935484-1.58918919-.61935484-2.1945946 0 0 .01935484 0 .01935484-.01891892.01935484zm.92062814.40733536c.31764706 0 .6.28885877.6.61382488 0 .32496612-.28235294.61382489-.6.61382489s-.6-.28885877-.6-.61382489c0-.32496611.24705882-.61382488.6-.61382488zm-.97197949 1.59174298c.31764706 0 .6.28885877.6.61382488 0 .32496612-.28235294.61382489-.6.61382489s-.6-.28885877-.6-.61382489c0-.32496611.24705883-.61382488.6-.61382488zm-1.2 1.59174298c.31764706 0 .6.28885878.6.61382488s-.28235294.6138249-.6.6138249-.6-.2888588-.6-.6138249.24705883-.61382488.6-.61382488zm2.77197949-1.59174298c.31764706 0 .6.28885877.6.61382488 0 .32496612-.28235294.61382489-.6.61382489s-.6-.28885877-.6-.61382489c0-.32496611.24705882-.61382488.6-.61382488zm-.97197949 1.59174298c.31764706 0 .6.28885878.6.61382488s-.28235294.6138249-.6.6138249-.6-.2888588-.6-.6138249.24705883-.61382488.6-.61382488z"/></g></svg>