<svg height="64" viewBox="0 0 64 64" width="64" xmlns="http://www.w3.org/2000/svg"><g><path d="m36.7545376 6h-10.5082157c-1.7894737 0-3.2463219 1.5699722-3.2463219 3.50046339 0 1.92956441 1.4559887 3.49953661 3.2463219 3.49953661h10.5082157c1.7886142 0 3.2454624-1.5699722 3.2454624-3.49953661 0-1.93049119-1.4568482-3.50046339-3.2454624-3.50046339zm0 4.6070436h-10.5082157c-.5664089 0-1.0270995-.4958295-1.0270995-1.10658021 0-.61075069.4606906-1.10750695 1.0270995-1.10750695h10.5082157c.5664089 0 1.02624.49675626 1.02624 1.10750695 0 .60982391-.4606906 1.10658021-1.02624 1.10658021z"/><path d="m55 11.8399432h-1.1421922c-.9882484 0-1.7933568-.7942224-1.7933568-1.7710549 0-.97683244.8051084-1.77105488 1.7933568-1.77105488h1.1421922v-8.29695969l-46-.00087373v8.29695969h1.1421922c.9891332 0 1.7933568.79509617 1.7933568 1.77105491 0 .9759587-.8042236 1.7710549-1.7933568 1.7710549h-1.1421922v52.1609305h46zm-2.2834997 5.1600568h-41.4330006v-3.065721c1.6942665-.48929 2.935549-2.0366695 2.935549-3.8653907 0-1.82959493-1.2412825-3.37697442-2.935549-3.86626437v-3.94664774h16.7453696 7.9431462 16.7444848v3.94664774c-1.6942665.48928995-2.935549 2.03666944-2.935549 3.86626437 0 1.8287212 1.2412825 3.3769744 2.935549 3.8653907zm-41.4330006 2h41.4330006v42.7448975h-41.4330006z"/></g></svg>